<?xml version="1.0"?>
<svg width="512" height="512" xmlns="http://www.w3.org/2000/svg" xmlns:svg="http://www.w3.org/2000/svg" aria-label="...">...
 <g class="layer">
  <title>Layer 1</title>
  <rect fill="#fff" height="512" id="svg_1" rx="15%" width="512"/>
  <g id="svg_25" transform="matrix(1.20865 0 0 1.20865 -52.8645 -51.8645)">
   <svg height="388.1" id="svg_2" version="1.1" width="960" x="52.964829" xml:space="preserve" xmlns="http://www.w3.org/2000/svg" xmlns:svg="http://www.w3.org/2000/svg" y="63.147337">
    <title>Godot Game engine logo</title>
    <desc>A free and open source cross-platform game engine</desc>
    <metadata>image/svg+xml</metadata>
    <defs>
     <clipPath id="svg_6">
      <path d="m0,595.3l841.9,0l0,-595.3l-841.9,0l0,595.3z" id="svg_23"/>
     </clipPath>
    </defs>
    <g class="layer" id="svg_3">
     <title>Layer 1</title>
     <g id="svg_4" transform="matrix(1.25 0 0 -1.25 -94.25 597.5)">
      <g clip-path="url(#svg_6)" id="svg_5">
       <g id="svg_21" stroke-width="0.8841" transform="matrix(1.131 0 0 1.131 348.1 279.3)">
        <path d="m0,0s-0.325,1.994 -0.515,1.976l-36.18,-3.491c-2.879,-0.278 -5.115,-2.574 -5.317,-5.459l-0.994,-14.25l-27.99,-1.997l-1.904,12.91c-0.424,2.872 -2.932,5.037 -5.835,5.037l-38.19,0c-2.902,0 -5.41,-2.165 -5.834,-5.037l-1.905,-12.91l-27.99,1.997l-0.994,14.25c-0.202,2.886 -2.438,5.182 -5.317,5.46l-36.2,3.49c-0.187,0.018 -0.324,-1.978 -0.511,-1.978l-0.049,-7.83l30.66,-4.944l1.004,-14.37c0.203,-2.91 2.551,-5.263 5.463,-5.472l38.55,-2.75c0.146,-0.01 0.29,-0.016 0.434,-0.016c2.897,0 5.401,2.166 5.825,5.038l1.959,13.29l28,0l1.959,-13.29c0.423,-2.871 2.93,-5.037 5.831,-5.037c0.142,0 0.284,0.005 0.423,0.015l38.56,2.75c2.911,0.209 5.26,2.562 5.463,5.472l1.003,14.37l30.64,4.966l-0.049,7.81z" fill="#fff" id="svg_22"/>
       </g>
       <g id="svg_19" stroke-width="0.8841" transform="matrix(1.131 0 0 1.131 126.8 346)">
        <path d="m0,0l0,-59.04c0.108,-0.001 0.216,-0.005 0.323,-0.015l36.2,-3.49c1.896,-0.183 3.382,-1.709 3.514,-3.609l1.116,-15.98l31.57,-2.253l2.175,14.75c0.282,1.912 1.922,3.329 3.856,3.329l38.19,0c1.933,0 3.573,-1.417 3.855,-3.329l2.175,-14.75l31.58,2.253l1.115,15.98c0.133,1.9 1.618,3.425 3.514,3.609l36.18,3.49c0.107,0.01 0.214,0.014 0.322,0.015l0,4.711l0.015,0.005l0,54.32l0.134,0c4.795,6.12 9.232,12.57 13.49,19.45c-5.651,9.62 -12.58,18.22 -19.98,26.18c-6.864,-3.455 -13.53,-7.369 -19.83,-11.53c-3.151,3.132 -6.7,5.694 -10.19,8.372c-3.425,2.751 -7.285,4.768 -10.95,7.118c1.09,8.117 1.629,16.11 1.846,24.45c-9.446,4.754 -19.52,7.906 -29.71,10.17c-4.068,-6.837 -7.788,-14.24 -11.03,-21.48c-3.842,0.642 -7.702,0.88 -11.57,0.926l0,0.006c-0.027,0 -0.052,-0.006 -0.075,-0.006c-0.024,0 -0.049,0.006 -0.073,0.006l0,-0.006c-3.872,-0.046 -7.729,-0.284 -11.57,-0.926c-3.238,7.238 -6.956,14.64 -11.03,21.48c-10.18,-2.264 -20.26,-5.416 -29.7,-10.17c0.216,-8.34 0.755,-16.33 1.848,-24.45c-3.668,-2.35 -7.523,-4.367 -10.95,-7.118c-3.481,-2.678 -7.036,-5.24 -10.19,-8.372c-6.297,4.165 -12.96,8.079 -19.83,11.53c-7.401,-7.965 -14.32,-16.56 -19.97,-26.18c4.253,-6.88 8.693,-13.33 13.49,-19.45l0.14,0.004z" fill="#478cbf" id="svg_20"/>
       </g>
       <g id="svg_17" stroke-width="0.8841" transform="matrix(1.131 0 0 1.131 311.4 266.9)">
        <path d="m0,0l-1.121,-16.06c-0.135,-1.936 -1.675,-3.477 -3.611,-3.616l-38.56,-2.751c-0.094,-0.007 -0.188,-0.01 -0.281,-0.01c-1.916,0 -3.569,1.406 -3.852,3.33l-2.211,14.99l-31.46,0l-2.211,-14.99c-0.297,-2.018 -2.101,-3.469 -4.133,-3.32l-38.56,2.751c-1.936,0.139 -3.476,1.68 -3.611,3.616l-1.121,16.06l-32.55,3.138c0.015,-3.498 0.06,-7.33 0.06,-8.093c0,-34.37 43.6,-50.9 97.78,-51.09l0.133,0c54.18,0.19 97.77,16.71 97.77,51.09c0,0.777 0.047,4.593 0.063,8.093l-32.524,-3.138z" fill="#478cbf" id="svg_18"/>
       </g>
       <g id="svg_15" stroke-width="0.8841" transform="matrix(1.131 0 0 1.131 204.1 318.9)">
        <path d="m0,0c0,-12.05 -9.765,-21.82 -21.81,-21.82c-12.04,0 -21.81,9.763 -21.81,21.82c0,12.04 9.768,21.8 21.81,21.8c12.05,0 21.81,-9.758 21.81,-21.8" fill="#fff" id="svg_16"/>
       </g>
       <g id="svg_13" stroke-width="0.8841" transform="matrix(1.131 0 0 1.131 198.2 317.5)">
        <path d="m0,0c0,-7.994 -6.479,-14.47 -14.48,-14.47c-7.996,0 -14.48,6.479 -14.48,14.47s6.483,14.48 14.48,14.48c8,0 14.48,-6.485 14.48,-14.48" fill="#414042" id="svg_14"/>
       </g>
       <g id="svg_11" stroke-width="0.8841" transform="matrix(1.131 0 0 1.131 237.5 292)">
        <path d="m0,0c-3.878,0 -7.021,2.858 -7.021,6.381l0,20.08c0,3.52 3.143,6.381 7.021,6.381s7.028,-2.861 7.028,-6.381l0,-20.08c0,-3.523 -3.15,-6.381 -7.028,-6.381" fill="#fff" id="svg_12"/>
       </g>
       <g id="svg_9" stroke-width="0.8841" transform="matrix(1.131 0 0 1.131 270.8 318.9)">
        <path d="m0,0c0,-12.05 9.765,-21.82 21.82,-21.82c12.04,0 21.81,9.763 21.81,21.82c0,12.04 -9.767,21.8 -21.81,21.8c-12.05,0 -21.82,-9.758 -21.82,-21.8" fill="#fff" id="svg_10"/>
       </g>
       <g id="svg_7" stroke-width="0.8841" transform="matrix(1.131 0 0 1.131 276.8 317.5)">
        <path d="m0,0c0,-7.994 6.477,-14.47 14.47,-14.47c8.002,0 14.48,6.479 14.48,14.47s-6.477,14.48 -14.48,14.48c-7.994,0 -14.47,-6.485 -14.47,-14.48" fill="#414042" id="svg_8"/>
       </g>
      </g>
     </g>
    </g>
   </svg>
  </g>
 </g></svg>
